<svg version="1.1" xmlns="http://www.w3.org/2000/svg" xmlns:xlink="http://www.w3.org/1999/xlink" width="16" height="16" viewBox="0,0,16,16"><defs><clipPath id="clip-1"><path d="M0,16v-16h16v6.42055c-0.26873,-0.40417 -0.72826,-0.67055 -1.25,-0.67055h-7.5c-0.82843,0 -1.5,0.67157 -1.5,1.5v7.5c0,0.52174 0.26638,0.98127 0.67055,1.25zM16,16h-0.42055c0.1666,-0.11077 0.30978,-0.25395 0.42055,-0.42055z" id="mask" fill="none"></path></clipPath></defs><g fill="none" fill-rule="nonzero" stroke="none" stroke-width="1" stroke-linecap="butt" stroke-linejoin="miter" stroke-miterlimit="10" stroke-dasharray="" stroke-dashoffset="0" font-family="none" font-weight="none" font-size="none" text-anchor="none" style="mix-blend-mode: normal"><path d="M0,16v-16h16v16z" fill="none"></path><g id="icon" fill="#ffca28"><path d="M7.25,7.25h7.5v7.5h-7.5zM9.22063,13.51688c0.16688,0.35375 0.49625,0.64563 1.05875,0.64563c0.625,0 1.05375,-0.33313 1.05375,-1.0625v-2.40812h-0.70813v2.39125c0,0.35875 -0.14562,0.45 -0.375,0.45c-0.24188,0 -0.34187,-0.16625 -0.45437,-0.3625zM11.7125,13.44188c0.20813,0.40813 0.62937,0.72063 1.2875,0.72063c0.66688,0 1.16688,-0.34563 1.16688,-0.98312c0,-0.5875 -0.3375,-0.85 -0.9375,-1.10875l-0.175,-0.075c-0.30438,-0.12875 -0.43375,-0.21625 -0.43375,-0.425c0,-0.17062 0.12937,-0.30375 0.3375,-0.30375c0.2,0 0.33375,0.0875 0.45438,0.30375l0.54562,-0.3625c-0.22875,-0.4 -0.55375,-0.55375 -1,-0.55375c-0.62875,0 -1.03312,0.4 -1.03312,0.92875c0,0.575 0.3375,0.84625 0.84563,1.0625l0.175,0.075c0.325,0.14188 0.51687,0.22938 0.51687,0.47125c0,0.2 -0.1875,0.34563 -0.47937,0.34563c-0.34563,0 -0.54562,-0.17938 -0.69562,-0.42938z"></path></g><path d="" fill="none"></path><path d="M14.75,14.75l-4.47062,-0.5875l-3.02937,0.5875l1.97063,-1.23313l1.40438,-2.825l-3.375,-3.44187l4.08313,3.44187l3.41687,-3.44187l-0.79188,3.95813l0.79188,3.54187" fill="none"></path><g clip-path="url(#clip-1)"><g fill="#5d6a7d"><path d="M2,3c0,-1.10457 0.89543,-2 2,-2h5.17157c0.53044,0 1.03913,0.21071 1.41423,0.58579l2.8284,2.82842c0.3751,0.37508 0.5858,0.88378 0.5858,1.41422v7.17157c0,1.1046 -0.8954,2 -2,2h-8c-1.10457,0 -2,-0.8954 -2,-2z"></path></g></g></g></svg>