<svg version="1.1" xmlns="http://www.w3.org/2000/svg" xmlns:xlink="http://www.w3.org/1999/xlink" width="16" height="16" viewBox="0,0,16,16"><defs><clipPath id="clip-1"><path d="M0,16v-16h16v6.42055c-0.26873,-0.40417 -0.72826,-0.67055 -1.25,-0.67055h-7.5c-0.82843,0 -1.5,0.67157 -1.5,1.5v7.5c0,0.52174 0.26638,0.98127 0.67055,1.25zM16,16h-0.42055c0.1666,-0.11077 0.30978,-0.25395 0.42055,-0.42055z" id="mask" fill="none"></path></clipPath></defs><g fill="none" fill-rule="none" stroke="none" stroke-width="1" stroke-linecap="butt" stroke-linejoin="miter" stroke-miterlimit="10" stroke-dasharray="" stroke-dashoffset="0" font-family="none" font-weight="none" font-size="none" text-anchor="none" style="mix-blend-mode: normal"><path d="M0,16v-16h16v16z" fill="none" fill-rule="nonzero"></path><g id="icon" fill="#0288d1" fill-rule="evenodd"><path d="M14.75,7.25h-7.5v7.5h7.5zM12.91875,10.65063c-0.04067,-0.0004 -0.08134,0.00106 -0.12187,0.00437c-0.25188,0.02187 -0.4875,0.13188 -0.64813,0.30312c-0.08442,0.09206 -0.14889,0.20058 -0.18938,0.31875c-0.01625,0.04937 -0.025,0.07813 -0.03125,0.1075c-0.00812,0.04375 -0.00812,0.08875 -0.0075,0.20125c0,0.24312 0.0125,0.30312 0.095,0.46438c0.08312,0.1625 0.20937,0.295 0.39187,0.41125c0.08,0.05063 0.285,0.15312 0.4525,0.225c0.36375,0.15813 0.47937,0.23125 0.5325,0.3375l0.0225,0.04375v0.09125c0,0.08875 0,0.09375 -0.01875,0.13c-0.04063,0.08437 -0.1375,0.15375 -0.2625,0.1875c-0.04625,0.0125 -0.06812,0.01375 -0.17312,0.01375c-0.05869,0.00392 -0.11764,-0.00071 -0.175,-0.01375c-0.07262,-0.01695 -0.1419,-0.04588 -0.205,-0.08563c-0.09446,-0.07213 -0.17858,-0.15688 -0.25,-0.25188c-0.01367,-0.02323 -0.03122,-0.04394 -0.05188,-0.06125c-0.00875,0 -0.45813,0.25625 -0.53688,0.30625c-0.02625,0.01688 -0.03313,0.025 -0.03313,0.03813c0,0.02812 0.105,0.18688 0.1875,0.28313c0.1675,0.19625 0.50375,0.36937 0.80125,0.4125c0.14927,0.01825 0.29992,0.02264 0.45,0.01313c0.09388,-0.00736 0.1867,-0.02475 0.27688,-0.05188c0.35187,-0.10312 0.59125,-0.3225 0.68,-0.62187c0.03625,-0.12187 0.05125,-0.27187 0.03938,-0.39875c-0.025,-0.26 -0.10438,-0.44375 -0.2625,-0.6025c-0.14625,-0.14813 -0.34687,-0.26688 -0.74375,-0.44063c-0.34375,-0.15125 -0.43375,-0.20938 -0.48375,-0.31563c-0.04251,-0.09574 -0.03527,-0.20625 0.01938,-0.29563c0.0625,-0.09125 0.19188,-0.13687 0.335,-0.1175c0.12466,0.01209 0.23687,0.08075 0.30438,0.18625c0.04375,0.06 0.07437,0.09125 0.08875,0.09125c0.01437,0 0.07625,-0.03812 0.26875,-0.16625c0.19625,-0.13 0.25812,-0.17437 0.2625,-0.1875c0.00625,-0.02063 -0.025,-0.06875 -0.11438,-0.17938c-0.18062,-0.22125 -0.3925,-0.33875 -0.665,-0.36813c-0.07789,-0.00776 -0.1561,-0.01172 -0.23438,-0.01187zM10.75188,10.68813h-0.55188c-1.06375,0.00125 -1.31125,0.00313 -1.3175,0.01c-0.00625,0.00625 -0.00812,0.07188 -0.00812,0.31563v0.30687l0.9675,0.00375v1.37c0,0.75375 0.00188,1.37625 0.00437,1.38437l0.00375,0.01375h0.35188c0.315,0 0.35187,0 0.35562,-0.00938c0.00187,-0.00625 0.00375,-0.62875 0.00375,-1.38437v-1.375l0.9675,-0.00313v-0.31062c0,-0.26938 -0.00063,-0.31187 -0.00938,-0.31687c-0.2558,-0.0052 -0.51166,-0.00687 -0.7675,-0.005z"></path></g><path d="" fill="none" fill-rule="nonzero"></path><path d="M14.75,14.75l-4.9,-0.6575l-2.6,0.6575l1.6325,-4.05188l-1.6325,-3.44812l3.50188,3.43812l0.7675,0.005l3.23063,-3.44312l-0.8175,3.96l0.21125,1.84813l0.60625,1.69187" fill="none" fill-rule="nonzero"></path><g clip-path="url(#clip-1)" fill-rule="nonzero"><g fill="#8b98a9"><path d="M2,3c0,-1.10457 0.89543,-2 2,-2h5.17157c0.53044,0 1.03913,0.21071 1.41423,0.58579l2.8284,2.82842c0.3751,0.37508 0.5858,0.88378 0.5858,1.41422v7.17157c0,1.1046 -0.8954,2 -2,2h-8c-1.10457,0 -2,-0.8954 -2,-2z"></path></g></g></g></svg>